<?xml version="1.0" encoding="utf-8"?>
<!-- Generator: Adobe Illustrator 22.1.0, SVG Export Plug-In . SVG Version: 6.00 Build 0)  -->
<svg version="1.1" id="Layer_1" xmlns="http://www.w3.org/2000/svg" xmlns:xlink="http://www.w3.org/1999/xlink" x="0px" y="0px"
	 viewBox="0 0 320 320" style="enable-background:new 0 0 320 320;" xml:space="preserve">
<style type="text/css">
	.st0{fill:none;}
	.st1{fill:#2C4360;}
	.st2{fill:#818488;}
	.st3{fill:#2C4461;}
</style>
<g>
	<g>
		<path class="st0" d="M154.6,87L144,118c4.7,2.3,9.4,5.4,13.9,9.5c6.2,5.5,11.7,12.3,16.4,20.3L155.7,87H154.6z"/>
		<path class="st1" d="M202.7,176.9L167.1,61.6h-0.5c-3.8,0-6.5,1.6-8.1,4.9c-0.7,1.3-1.5,3.2-2.3,5.8l-15.3,44.3
			c-4.9-1.9-9.9-2.9-15-2.9c-6.1,0-11.1,1.7-15.1,5.1c-3.9,3.4-5.9,7.3-5.9,11.6c0,4.3,1.3,7.7,3.8,10.3c2.5,2.6,5.4,3.9,8.6,3.9
			c3.2,0,6-1.1,8.4-3.2c2.3-2.1,3.5-4.8,3.5-8.1c0-3.3-0.9-5.8-2.6-7.6c-1.8-1.8-3.9-2.6-6.5-2.6c-4.1,0-6.9,1.8-8.3,5.5
			c-0.4,0.9-0.9,1.4-1.8,1.4c-1.2,0-1.7-0.6-1.4-1.8c0.5-3.5,2.5-6.3,6-8.3c3.5-2,7.8-3,12.9-3c3.9,0,8,0.9,12.3,2.8l-12.3,35.7
			c-2.5,7.4-5.3,12.8-8.6,16.3c-3.2,3.5-8,5.2-14.2,5.2v2.8h52.2v-2.8h-3c-6.8,0-12.3-0.5-16.4-1.6c-2.7-0.7-4.7-1.9-5.9-3.7
			c-1.2-1.8-1.9-4.3-1.9-7.7c0-3.3,0.6-6.8,1.9-10.3l11.2-32.5c0.4,0.2,0.7,0.4,1.1,0.6c5.9,3.2,11.1,7.4,15.6,12.5
			c8.8,9.9,15.5,20.2,20.1,31.1l3.5,11.5h-13.1v2.8h45.1v-2.8H202.7z M157.9,127.5c-4.6-4.1-9.2-7.2-13.9-9.5l10.7-31h1.1l18.6,60.8
			C169.6,139.8,164.1,133.1,157.9,127.5z"/>
	</g>
	<g>
		<path class="st2" d="M237,197.6H83v-154h154V197.6z M84.6,196h150.8V45.3H84.6V196z"/>
	</g>
	<g>
		<path class="st1" d="M243.6,204.3H76.4V37h167.2V204.3z M78.7,201.9h162.6V39.4H78.7V201.9z"/>
	</g>
	<g>
		<path class="st3" d="M12.4,271.3h0.8c1.2,0,2-1.4,2.7-3.1l13.9-32h3.8v0.6c0,1,0.2,2.3,0.4,2.9l11.7,28.5c1,2.4,1.3,3.1,2.9,3.1
			H49v0.4h-9.4v-0.4h3.8v-0.1c-0.6-0.2-1.2-1.5-1.5-2.3l-2.8-6.8H19.5l-2.7,6.1c-0.2,0.4-0.3,0.8-0.3,1.1c0,1.1,0.9,1.9,2.4,1.9h2.4
			v0.4h-9V271.3z M38.7,261.2l-8.4-20.6c-0.3-0.8-0.4-1.4-0.4-2h-0.4c0,0.3-0.1,0.9-0.6,2l-9,20.6H38.7z"/>
		<path class="st3" d="M50.3,271.3h1.7c2.4,0,2.6-0.2,2.6-2.6v-28.2c0-0.9-0.7-1.6-1.6-1.6c-0.1,0-0.1,0-0.2,0l-2.9,0.2l-0.1-0.3
			l3.8-0.8c2-0.4,3.7-1.6,3.7-3.6v-0.2h0.4v6.5c0,0.8,0,4.7-0.1,5.2H58c0.1-0.9,0.5-2.4,0.8-3.2c1.4-4.2,4.9-6.9,9-6.9
			c5.3,0,8.3,3,8.3,7.5v25.4c0,2.4,0.2,2.6,2.6,2.6h1.8v0.4H67.9v-0.4h4.8v-0.1c-0.3-0.3-0.4-0.5-0.4-1.3v-25.8
			c0-4.8-1.4-7.5-4.8-7.5c-5,0-8.9,4.8-8.9,12.1v20c0,2.4,0.3,2.6,2.7,2.6h1.7v0.4H50.3V271.3z"/>
		<path class="st3" d="M85.9,271.3h3.8c2.4,0,2.6-0.2,2.6-2.6v-31.6h-3c-4.7,0-6.4,0.9-6.7,5.7l-0.2,2l-0.9-0.1l0.7-11.5l0.5,0
			l-0.2,2.9h23l-0.2-2.8l0.5,0l0.7,11.4l-0.9,0.1l-0.2-2c-0.3-4.7-1.9-5.7-6.7-5.7h-2.9v31.6c0,2.4,0.2,2.6,2.6,2.6h3.7v0.4H85.9
			V271.3z"/>
		<path class="st3" d="M108.4,271.3h1.7c2.4,0,2.6-0.7,2.6-3.1v-28.5c0-2.4-0.2-3.1-2.6-3.1h-1.7v-0.4h12.1v0.4h-1.3
			c-2.4,0-2.7,0.7-2.7,3.1v12.9h13.5v-12.9c0-2.4-0.3-3.1-2.7-3.1h-1.3v-0.4h12.2v0.4h-1.8c-2.4,0-2.6,0.7-2.6,3.1v28.5
			c0,2.4,0.2,3.1,2.6,3.1h1.8v0.4h-12.2v-0.4h1.3c2.4,0,2.6-0.7,2.6-3.1v-14.7h-13.5v14.7c0,2.4,0.3,3.1,2.7,3.1h1.3v0.4h-12.1
			V271.3z"/>
		<path class="st3" d="M140.7,253.9c0-10.9,7.3-18.1,18.3-18.1c10.9,0,18.2,7.3,18.2,18.1c0,10.9-7.3,18.2-18.2,18.2
			C148,272.1,140.7,264.9,140.7,253.9 M173,254.9c0-11.8-4.9-18.2-14.1-18.2c-9,0-13.8,5.7-13.8,16.3c0,11.8,5,18.2,14.2,18.2
			C168.1,271.2,173,265.5,173,254.9"/>
		<path class="st3" d="M179.7,271.3h1.7c2.4,0,2.6-0.6,2.6-3v-29.1c0-2.4-0.2-2.6-2.6-2.6h-1.7v-0.4h12.6v0.4h-1.7
			c-2.4,0-2.7,0.2-2.7,2.6v29c0,1.1-0.5,2-1.1,2.6v0h6.7c4.7,0,7.9-0.9,8.3-5.7l0.4-4.9h1l-1,14l-0.5,0l0.2-2.9h-0.1
			c-0.3,0.3-0.5,0.4-1.3,0.4h-20.8V271.3z"/>
		<path class="st3" d="M205.7,253.9c0-10.9,7.3-18.1,18.3-18.1c10.9,0,18.2,7.3,18.2,18.1c0,10.9-7.3,18.2-18.2,18.2
			C213.1,272.1,205.7,264.9,205.7,253.9 M238,254.9c0-11.8-4.9-18.2-14.1-18.2c-9,0-13.8,5.7-13.8,16.3c0,11.8,5,18.2,14.2,18.2
			C233.2,271.2,238,265.5,238,254.9"/>
		<path class="st3" d="M274.9,273.7v-3.5c0-1.2-0.9-2.4-2-2.4c-0.4,0-0.9,0.2-1.4,0.7c-2.2,2.4-5.4,3.6-8.8,3.6
			c-10.3,0-17.2-7.3-17.2-18.3c0-10.8,6.8-18,16.9-18c3.4,0,6.6,1,9,3.1c0.3,0.2,0.4,0.6,0.5,0.9l0.2-0.1c-0.1-0.4-0.2-0.7-0.2-1.1
			l-0.2-4.8l0.5,0l0.8,15.2l-0.8,0.1l-0.2-3.3c-0.3-5.8-5.1-9.1-10.1-9.1c-7.9,0-12.1,5.7-12.1,16.4c0,11.8,4.6,18.2,13.1,18.2
			c3.3-0.1,6.5-1.3,8.5-4v-6.5c0-2.8-1.8-4.6-4.6-4.6h-5.7v-0.9h18.4v0.9h-4.2v4.1v13.5H274.9z"/>
		<path class="st3" d="M285.4,271.3h4.2c2.4,0,2.6-0.2,2.6-2.6V255l-7.8-14.9c-1.2-2.3-1.8-3.5-3.3-3.5h-1v-0.4h9.3v0.4h-3.1v0.1
			c0.6,0.2,1.2,1.3,2,2.8l6.4,12.1c0.2,0.4,0.6,1.3,0.6,1.6h0.3c0.1-0.3,0.4-1.1,0.6-1.6l5.9-11.5c0.4-0.8,0.7-1.6,0.7-2.2
			c0-0.8-0.6-1.4-2.1-1.4h-3v-0.4h9.5v0.4h-0.8c-1.4,0-2,1-3.3,3.5l-7.3,14.1v14.4c0,2.4,0.2,2.6,2.6,2.6h3.7v0.4h-17V271.3z"/>
	</g>
</g>
</svg>
