<svg xmlns="http://www.w3.org/2000/svg" viewBox="0 0 50 50"><title>facebook_icon</title><rect x="-14.6" y="12.3" width="26.7" height="26.7" fill="none"/><rect x="47.5" y="12.3" width="26.6" height="26.6" fill="none"/><rect x="47.5" y="12.3" width="26.6" height="26.6" fill="none"/><path d="M45,2.5H5A2.48,2.48,0,0,0,2.5,5V45A2.48,2.48,0,0,0,5,47.5H26.6V30.1H20.8V23.3h5.8v-5c0-5.8,3.5-9,8.7-9a40.06,40.06,0,0,1,5.2.3v6.1H36.9c-2.8,0-3.4,1.3-3.4,3.3v4.3h6.7l-.9,6.8H33.4V47.5H45A2.48,2.48,0,0,0,47.5,45V5A2.48,2.48,0,0,0,45,2.5Z" fill="#2C4360"/></svg>