<?xml version="1.0" encoding="utf-8"?>
<svg version="1.1" id="Layer_1" xmlns="http://www.w3.org/2000/svg" xmlns:xlink="http://www.w3.org/1999/xlink" x="0px" y="0px"
	 viewBox="0 0 50 50" style="enable-background:new 0 0 50 50;" xml:space="preserve">
<style type="text/css">
	.st0{fill:none;}
</style>
<rect x="-14.6" y="12.3" class="st0" width="26.7" height="26.7"/>
<rect x="47.5" y="12.3" class="st0" width="26.6" height="26.6"/>
<rect x="47.5" y="12.3" class="st0" width="26.6" height="26.6"/>
<g>
	<path d="M25,13.5c-6.4,0-11.5,5.2-11.5,11.5S18.6,36.5,25,36.5S36.5,31.4,36.5,25S31.4,13.5,25,13.5z M25,32.5
		c-4.1,0-7.5-3.4-7.5-7.5s3.4-7.5,7.5-7.5s7.5,3.4,7.5,7.5S29.1,32.5,25,32.5L25,32.5z M39.7,13c0,1.5-1.2,2.7-2.7,2.7
		c-1.5,0-2.7-1.2-2.7-2.7s1.2-2.7,2.7-2.7S39.7,11.5,39.7,13z M47.3,15.7c-0.2-3.6-1-6.8-3.6-9.4c-2.6-2.6-5.8-3.5-9.4-3.6
		c-3.7-0.2-14.9-0.2-18.6,0c-3.6,0.2-6.8,1-9.4,3.6s-3.5,5.8-3.6,9.4c-0.2,3.7-0.2,14.9,0,18.6c0.2,3.6,1,6.8,3.6,9.4
		s5.8,3.5,9.4,3.6c3.7,0.2,14.9,0.2,18.6,0c3.6-0.2,6.8-1,9.4-3.6c2.6-2.6,3.5-5.8,3.6-9.4C47.6,30.6,47.6,19.4,47.3,15.7L47.3,15.7
		z M42.5,38.3c-0.8,2-2.3,3.5-4.3,4.3c-3,1.2-10,0.9-13.3,0.9s-10.3,0.3-13.3-0.9c-2-0.8-3.5-2.3-4.3-4.3c-1.2-3-0.9-10-0.9-13.3
		S6.3,14.7,7.5,11.7c0.8-2,2.3-3.5,4.3-4.3c3-1.2,10-0.9,13.3-0.9s10.3-0.3,13.3,0.9c2,0.8,3.5,2.3,4.3,4.3c1.2,3,0.9,10,0.9,13.3
		S43.7,35.3,42.5,38.3z" fill='#2C4360'/>
</g>
</svg>
