<?xml version="1.0" encoding="utf-8"?>
<!-- Generator: Adobe Illustrator 22.1.0, SVG Export Plug-In . SVG Version: 6.00 Build 0)  -->
<svg version="1.1" id="Layer_1" xmlns="http://www.w3.org/2000/svg" xmlns:xlink="http://www.w3.org/1999/xlink" x="0px" y="0px"
	 viewBox="0 0 50 50" style="enable-background:new 0 0 50 50;" xml:space="preserve">
<style type="text/css">
	.st0{fill:none;}
</style>
<rect x="-14.6" y="12.3" class="st0" width="26.7" height="26.7"/>
<path d="M25,2.5C12.6,2.5,2.5,12.6,2.5,25c0,9.5,5.9,17.7,14.3,21c-0.2-1.8-0.4-4.5,0.1-6.5c0.4-1.8,2.6-11.2,2.6-11.2
	S18.8,27,18.8,25c0-3.1,1.8-5.5,4.1-5.5c1.9,0,2.8,1.4,2.8,3.2c0,1.9-1.2,4.8-1.9,7.5c-0.5,2.2,1.1,4.1,3.3,4.1
	c4,0,7.1-4.2,7.1-10.3c0-5.4-3.9-9.2-9.4-9.2c-6.4,0-10.2,4.8-10.2,9.8c0,1.9,0.7,4,1.7,5.1c0.2,0.2,0.2,0.4,0.2,0.6
	C16.4,31,16,32.6,16,32.9c-0.1,0.4-0.3,0.5-0.8,0.3c-2.8-1.3-4.6-5.4-4.6-8.7c0-7.1,5.2-13.6,14.9-13.6c7.8,0,13.9,5.6,13.9,13
	c0,7.8-4.9,14-11.7,14c-2.3,0-4.4-1.2-5.2-2.6c0,0-1.1,4.3-1.4,5.3c-0.5,2-1.9,4.4-2.8,5.9c2.1,0.7,4.3,1,6.7,1
	c12.4,0,22.5-10.1,22.5-22.5S37.4,2.5,25,2.5" fill='#2C4360'/>
<rect x="47.5" y="12.3" class="st0" width="26.6" height="26.6"/>
<rect x="47.5" y="12.3" class="st0" width="26.6" height="26.6"/>
</svg>
